#!OML:ASF E:\pregnant2\Project 1\Capture day 1\Session 1\pregnant2.ASF
:FULLY-SPECIFIED
:DEGREES
3216
root -5.27153 13.1473 20.3594 47.2701 -2.56934 -0.743286
lowerback -4.40914 2.25024 0.962008
upperback -11.2027 3.00349 -1.29255
thorax -9.24143 1.36039 -2.0183
lowerneck -31.6074 -5.255 -6.27669
upperneck 11.7153 -5.77201 6.71049
head 9.0611 -2.19589 2.4209
rclavicle -1.69961e-014 7.7526e-015
rhumerus -22.9243 42.1686 -92.1015
rradius 38.9892
rwrist 8.98046
rhand -18.6803 -28.791
rfingers 7.12502
rthumb 7.61377 -58.634
lclavicle -1.69961e-014 7.7526e-015
lhumerus -14.0556 -30.9253 91.8272
lradius 19.6508
lwrist -16.9139
lhand -17.0421 40.214
lfingers 7.12502
lthumb 9.19469 69.9936
rfemur -98.7146 -3.68094 24.4756
rtibia 93.4369
rfoot -35.2719 -16.2631
rtoes -9.47903
lfemur -98.406 14.8992 -28.9589
ltibia 92.2445
lfoot -35.3929 7.91431
ltoes -14.9737
3217
root -5.26655 13.1367 20.3637 47.1957 -2.45993 -0.619639
lowerback -4.36947 2.2037 0.968098
upperback -11.1768 2.93944 -1.30583
thorax -9.23685 1.32715 -2.03451
lowerneck -31.6164 -5.26203 -6.27637
upperneck 11.7804 -5.79184 6.74436
head 9.08846 -2.20022 2.42961
rclavicle -1.75924e-014 -4.77083e-015
rhumerus -22.9773 42.1413 -92.0486
rradius 39.121
rwrist 8.90553
rhand -18.7408 -28.8404
rfingers 7.12502
rthumb 7.55537 -58.6854
lclavicle -1.75924e-014 -4.77083e-015
lhumerus -14.0346 -31.0778 91.862
lradius 19.6664
lwrist -16.6893
lhand -17.145 40.2613
lfingers 7.12502
lthumb 9.09539 70.0451
rfemur -98.7089 -3.89211 24.4785
rtibia 93.606
rfoot -35.3826 -16.2506
rtoes -9.43078
lfemur -98.3449 14.6962 -28.9645
ltibia 92.3194
lfoot -35.4146 8.07534
ltoes -14.9124
3218
root -5.26162 13.1383 20.3673 47.1059 -2.32871 -0.475455
lowerback -4.32094 2.14808 0.98602
upperback -11.1483 2.86294 -1.32303
thorax -9.23423 1.2864 -2.06128
lowerneck -31.6217 -5.26913 -6.27728
upperneck 11.855 -5.81178 6.77662
head 9.11862 -2.20482 2.43796
rclavicle -5.26779e-015 -7.95139e-016
rhumerus -23.0209 42.1016 -92
rradius 39.2316
rwrist 8.8418
rhand -18.7906 -28.8856
rfingers 7.12502
rthumb 7.5073 -58.7324
lclavicle -5.26779e-015 -7.95139e-016
lhumerus -14.0105 -31.2269 91.889
lradius 19.6753
lwrist -16.5204
lhand -17.2145 40.3043
lfingers 7.12502
lthumb 9.02835 70.0911
rfemur -98.6193 -4.13219 24.4783
rtibia 93.7129
rfoot -35.5046 -16.2384
rtoes -9.3877
lfemur -98.1941 14.4625 -28.9632
ltibia 92.3211
lfoot -35.4318 8.21882
ltoes -14.8362
3219
root -5.25649 13.1286 20.3713 47.0205 -2.20151 -0.341947
lowerback -4.2758 2.09441 1.00879
upperback -11.1239 2.78928 -1.33834
thorax -9.23434 1.2467 -2.08877
lowerneck -31.6217 -5.27391 -6.28158
upperneck 11.9393 -5.82809 6.80863
head 9.1513 -2.20794 2.44743
rclavicle 7.85199e-015 -7.7526e-015
rhumerus -23.0596 42.0619 -91.958
rradius 39.3258
rwrist 8.78373
rhand -18.8326 -28.9158
rfingers 7.12502
rthumb 7.46675 -58.764
lclavicle 7.85199e-015 -7.7526e-015
lhumerus -13.9862 -31.3563 91.9067
lradius 19.6772
lwrist -16.4258
lhand -17.2468 40.3388
lfingers 7.12502
lthumb 8.9972 70.127
rfemur -98.5969 -4.36382 24.4819
rtibia 93.8756
rfoot -35.6159 -16.2252
rtoes -9.35489
lfemur -98.1172 14.2497 -28.9581
ltibia 92.3938
lfoot -35.4486 8.32676
ltoes -14.6865
3220
root -5.25264 13.1171 20.3739 46.9817 -2.14697 -0.286586
lowerback -4.26032 2.07201 1.01377
upperback -11.1171 2.7585 -1.34463
thorax -9.23643 1.23048 -2.09759
lowerneck -31.6188 -5.27608 -6.28476
upperneck 12.0297 -5.84073 6.83466
head 9.18526 -2.21002 2.45526
rclavicle -6.65929e-015 -3.57812e-015
rhumerus -23.0891 42.0207 -91.9195
rradius 39.406
rwrist 8.73417
rhand -18.861 -28.9352
rfingers 7.12502
rthumb 7.43928 -58.7844
lclavicle -6.65929e-015 -3.57812e-015
lhumerus -13.9593 -31.4663 91.9153
lradius 19.6714
lwrist -16.3957
lhand -17.2579 40.3693
lfingers 7.12502
lthumb 8.98647 70.1579
rfemur -98.6284 -4.4753 24.4939
rtibia 94.0196
rfoot -35.6872 -16.2229
rtoes -9.33179
lfemur -98.1276 14.1481 -28.9618
ltibia 92.5024
lfoot -35.4713 8.40391
ltoes -14.4841
